# xmcd
# 
# Track frame offsets:
#     150
#     14908
#     27873
#     41938
#     54822
#     66836
#     79643
#     95282
#     109826
#     121816
#     136706
#     150583
#     163085
#     176764
#     189253
#     201482
#     214780
#     228305
#     244815
#     256142
# 
# Disc length: 3609
# 
# Revision: 2
# Processed by: cddbd v1.5.2PL0 Copyright (c) Steve Scherf et al.
# Submitted via: BonkEnc v1.0.8
# 
DISCID=0d0e1714
DTITLE=200 Blues Songs - Goin' Mad Blues [CD 5)
DYEAR=2006
DGENRE=Blues
TTITLE0=Big Joe Williams - Highway 49
TTITLE1=Big Joe Turner - Howlin' Winds
TTITLE2=T-Bone Walker - Come Back To Me Baby
TTITLE3=Blind Willie McTell - It's A Good Little Thing
TTITLE4=Lightnin' Hopkins - Can't Get That Woman Off My Mind
TTITLE5=Big Bill Broonzy - W.P.A. Rag
TTITLE6=Bessie Smith - Taint Nobody's Bizness If I Do
TTITLE7=Arthur 'Big Boy' Crudup - That's Your Red Wagon
TTITLE8=Bukka White - Parchman Farm Blues
TTITLE9=Ma Rainey - Booze and Blues
TTITLE10=Kokomo Arnold - Grandpa Got Drunk
TTITLE11=Sleepy John Estes - Drop Down (I Don't Feel Welcome Here)
TTITLE12=Memphis Slim - Caught The Old Coon At Last
TTITLE13=John Lee 'Sonny Boy' Williamson - Good Gal Blues
TTITLE14=Blind Boy Fuller and Sonny Terry - Harmonica Blues
TTITLE15=Leroy Carr - When The Sun Goes Down
TTITLE16=Brownie McGhee - Death Of Blind Boy Fuller
TTITLE17=Leadbelly - Irene Goodnight
TTITLE18=Robert Johnson - Walking Blues
TTITLE19=Hot Lips Page - Thirsty Mama Blues
EXTD=
EXTT0=
EXTT1=
EXTT2=
EXTT3=
EXTT4=
EXTT5=
EXTT6=
EXTT7=
EXTT8=
EXTT9=
EXTT10=
EXTT11=
EXTT12=
EXTT13=
EXTT14=
EXTT15=
EXTT16=
EXTT17=
EXTT18=
EXTT19=
PLAYORDER=
